<svg width="3117" height="831" viewBox="0 0 3117 831" fill="none" xmlns="http://www.w3.org/2000/svg">
<path d="M695.164 388.827L629.464 248.127V385.227L590.164 387.027V163.827L636.064 162.027L694.264 295.827V165.627L731.464 162.027V385.227L695.164 388.827ZM765.763 387.027V360.627L822.463 251.127H768.163L771.763 218.127H869.263V243.327L813.463 353.727H873.763L870.163 387.027H765.763ZM952.004 390.927C932.004 390.927 916.704 383.027 906.104 367.227C895.504 351.227 890.204 330.027 890.204 303.627C890.204 276.827 895.604 255.527 906.404 239.727C917.204 223.927 932.904 216.027 953.504 216.027C973.104 216.027 988.104 223.927 998.504 239.727C1008.9 255.527 1014.1 276.827 1014.1 303.627C1014.1 305.227 1013.8 306.427 1013.2 307.227C1012.6 307.827 1012.3 308.227 1012.3 308.427H932.204C932.204 321.427 933.904 333.327 937.304 344.127C940.704 354.727 945.904 360.027 952.904 360.027C960.704 360.027 966.504 355.527 970.304 346.527C974.104 337.527 976.104 332.827 976.304 332.427L1008.1 344.427C1003.9 358.827 997.204 370.227 988.004 378.627C978.804 386.827 966.804 390.927 952.004 390.927ZM972.704 284.127C972.704 272.127 971.104 262.627 967.904 255.627C964.704 248.627 959.704 245.127 952.904 245.127C949.504 245.127 946.204 246.827 943.004 250.227C939.804 253.627 937.204 258.327 935.204 264.327C933.204 270.327 932.204 276.927 932.204 284.127H972.704ZM1107.61 391.227C1085.21 391.227 1068.41 384.027 1057.21 369.627C1046.01 355.227 1040.41 336.327 1040.41 312.927V163.827L1084.51 162.027V316.527C1084.51 324.327 1084.91 330.927 1085.71 336.327C1086.71 341.727 1089.01 346.327 1092.61 350.127C1096.21 353.927 1101.71 355.827 1109.11 355.827C1116.11 355.827 1121.21 353.927 1124.41 350.127C1127.81 346.127 1129.91 341.527 1130.71 336.327C1131.51 330.927 1131.91 324.127 1131.91 315.927V165.627L1172.11 162.027V307.827C1172.11 329.027 1167.91 348.227 1159.51 365.427C1151.31 382.627 1134.01 391.227 1107.61 391.227ZM1251.12 390.927C1218.72 390.927 1202.52 361.527 1202.52 302.727C1202.52 272.127 1206.52 250.027 1214.52 236.427C1222.52 222.827 1235.02 216.027 1252.02 216.027C1259.22 216.027 1266.12 218.427 1272.72 223.227C1279.32 227.827 1284.12 233.627 1287.12 240.627V167.427L1329.42 162.027V385.227L1297.62 388.827L1287.12 366.027C1285.12 373.427 1281.42 379.427 1276.02 384.027C1270.62 388.627 1262.32 390.927 1251.12 390.927ZM1266.72 360.927C1272.72 360.927 1277.62 357.627 1281.42 351.027C1285.22 344.227 1287.12 332.827 1287.12 316.827V260.427C1281.32 251.427 1274.52 246.927 1266.72 246.927C1260.12 246.927 1255.22 249.327 1252.02 254.127C1249.02 258.727 1247.02 264.827 1246.02 272.427C1245.22 280.027 1244.82 290.127 1244.82 302.727C1244.82 315.527 1245.22 325.927 1246.02 333.927C1247.02 341.927 1249.12 348.427 1252.32 353.427C1255.52 358.427 1260.32 360.927 1266.72 360.927ZM1420.2 390.927C1400 390.927 1384.4 382.927 1373.4 366.927C1362.6 350.927 1357.2 329.627 1357.2 303.027C1357.2 276.627 1362.6 255.527 1373.4 239.727C1384.2 223.927 1399.8 216.027 1420.2 216.027C1440.4 216.027 1456 223.927 1467 239.727C1478.2 255.527 1483.8 276.627 1483.8 303.027C1483.8 329.427 1478.2 350.727 1467 366.927C1456 382.927 1440.4 390.927 1420.2 390.927ZM1420.2 359.727C1429.2 359.727 1435 354.227 1437.6 343.227C1440.2 332.227 1441.5 318.727 1441.5 302.727C1441.5 286.727 1440.2 273.227 1437.6 262.227C1435 251.227 1429.2 245.727 1420.2 245.727C1411.2 245.727 1405.5 250.927 1403.1 261.327C1400.7 271.727 1399.5 284.427 1399.5 299.427C1399.5 317.827 1400.7 332.527 1403.1 343.527C1405.5 354.327 1411.2 359.727 1420.2 359.727ZM1588.31 387.027V162.027H1702.61L1699.01 197.127H1632.41V250.827H1679.81L1679.51 288.627H1632.41V351.927H1705.01L1701.41 387.027H1588.31ZM1770.26 390.927C1737.86 390.927 1721.66 361.527 1721.66 302.727C1721.66 272.127 1725.66 250.027 1733.66 236.427C1741.66 222.827 1754.16 216.027 1771.16 216.027C1778.36 216.027 1785.26 218.427 1791.86 223.227C1798.46 227.827 1803.26 233.627 1806.26 240.627V167.427L1848.56 162.027V385.227L1816.76 388.827L1806.26 366.027C1804.26 373.427 1800.56 379.427 1795.16 384.027C1789.76 388.627 1781.46 390.927 1770.26 390.927ZM1785.86 360.927C1791.86 360.927 1796.76 357.627 1800.56 351.027C1804.36 344.227 1806.26 332.827 1806.26 316.827V260.427C1800.46 251.427 1793.66 246.927 1785.86 246.927C1779.26 246.927 1774.36 249.327 1771.16 254.127C1768.16 258.727 1766.16 264.827 1765.16 272.427C1764.36 280.027 1763.96 290.127 1763.96 302.727C1763.96 315.527 1764.36 325.927 1765.16 333.927C1766.16 341.927 1768.26 348.427 1771.46 353.427C1774.66 358.427 1779.46 360.927 1785.86 360.927ZM1920.74 390.927C1909.74 390.927 1900.74 387.127 1893.74 379.527C1886.74 371.727 1883.24 361.327 1883.24 348.327V221.727L1925.24 218.127V331.227C1925.24 339.227 1926.54 345.027 1929.14 348.627C1931.74 352.027 1935.74 353.727 1941.14 353.727C1945.34 353.727 1949.84 352.727 1954.64 350.727C1959.44 348.527 1963.74 345.127 1967.54 340.527V221.727L2009.84 218.127V385.227L1967.54 388.827V367.227C1960.54 375.227 1952.84 381.227 1944.44 385.227C1936.24 389.027 1928.34 390.927 1920.74 390.927ZM2098.36 390.927C2085.56 390.927 2074.56 386.927 2065.36 378.927C2056.36 370.927 2049.56 360.327 2044.96 347.127C2040.36 333.927 2038.06 319.627 2038.06 304.227C2038.06 289.027 2040.26 274.727 2044.66 261.327C2049.26 247.927 2056.16 237.027 2065.36 228.627C2074.56 220.227 2085.86 216.027 2099.26 216.027C2109.46 216.027 2118.56 218.627 2126.56 223.827C2134.76 228.827 2141.16 235.927 2145.76 245.127C2150.36 254.327 2152.86 264.827 2153.26 276.627L2113.36 278.427C2113.36 277.627 2112.96 274.427 2112.16 268.827C2111.56 263.227 2110.06 258.627 2107.66 255.027C2105.46 251.427 2102.56 249.627 2098.96 249.627C2090.96 249.627 2085.86 255.127 2083.66 266.127C2081.46 276.927 2080.36 289.127 2080.36 302.727C2080.36 316.127 2081.46 328.327 2083.66 339.327C2086.06 350.127 2091.56 355.527 2100.16 355.527C2110.96 355.527 2116.56 344.927 2116.96 323.727L2152.36 327.627C2149.76 348.427 2144.56 364.227 2136.76 375.027C2128.96 385.627 2116.16 390.927 2098.36 390.927ZM2207.35 390.927C2200.15 390.927 2193.65 388.727 2187.85 384.327C2182.05 379.727 2177.55 373.627 2174.35 366.027C2171.15 358.227 2169.55 349.527 2169.55 339.927C2169.55 318.127 2176.95 302.827 2191.75 294.027C2206.75 285.027 2224.15 279.927 2243.95 278.727C2243.95 267.927 2243.25 259.927 2241.85 254.727C2240.45 249.527 2237.05 246.927 2231.65 246.927C2227.05 246.927 2223.55 248.727 2221.15 252.327C2218.75 255.927 2217.25 260.527 2216.65 266.127L2175.55 258.927C2177.55 243.527 2183.85 232.527 2194.45 225.927C2205.05 219.327 2217.45 216.027 2231.65 216.027C2249.85 216.027 2263.45 220.827 2272.45 230.427C2281.65 240.027 2286.25 252.527 2286.25 267.927V355.227C2286.25 364.627 2287.75 374.627 2290.75 385.227L2249.65 388.827L2244.85 368.127C2241.25 374.527 2235.95 379.927 2228.95 384.327C2221.95 388.727 2214.75 390.927 2207.35 390.927ZM2226.85 360.927C2230.25 360.927 2233.05 360.127 2235.25 358.527C2237.65 356.927 2240.55 354.327 2243.95 350.727V303.927C2233.95 303.927 2225.95 306.627 2219.95 312.027C2213.95 317.427 2210.95 325.827 2210.95 337.227C2210.95 344.827 2212.25 350.727 2214.85 354.927C2217.65 358.927 2221.65 360.927 2226.85 360.927ZM2378.56 390.327C2364.96 390.327 2353.46 386.927 2344.06 380.127C2334.66 373.127 2329.96 360.827 2329.96 343.227V249.927H2306.56L2308.36 218.127H2331.16L2335.36 181.527L2371.96 176.427V218.127H2406.76L2404.96 249.927H2372.26V342.927C2372.26 348.927 2373.76 353.227 2376.76 355.827C2379.76 358.427 2384.16 359.727 2389.96 359.727C2393.16 359.727 2398.56 359.127 2406.16 357.927V387.027C2405.36 387.227 2402.16 387.827 2396.56 388.827C2391.16 389.827 2385.16 390.327 2378.56 390.327ZM2429.37 196.527V153.027L2471.37 150.027V194.727L2429.37 196.527ZM2429.07 388.827V221.727L2471.07 218.127V385.227L2429.07 388.827ZM2562.77 390.927C2542.57 390.927 2526.97 382.927 2515.97 366.927C2505.17 350.927 2499.77 329.627 2499.77 303.027C2499.77 276.627 2505.17 255.527 2515.97 239.727C2526.77 223.927 2542.37 216.027 2562.77 216.027C2582.97 216.027 2598.57 223.927 2609.57 239.727C2620.77 255.527 2626.37 276.627 2626.37 303.027C2626.37 329.427 2620.77 350.727 2609.57 366.927C2598.57 382.927 2582.97 390.927 2562.77 390.927ZM2562.77 359.727C2571.77 359.727 2577.57 354.227 2580.17 343.227C2582.77 332.227 2584.07 318.727 2584.07 302.727C2584.07 286.727 2582.77 273.227 2580.17 262.227C2577.57 251.227 2571.77 245.727 2562.77 245.727C2553.77 245.727 2548.07 250.927 2545.67 261.327C2543.27 271.727 2542.07 284.427 2542.07 299.427C2542.07 317.827 2543.27 332.527 2545.67 343.527C2548.07 354.327 2553.77 359.727 2562.77 359.727ZM2654.94 221.727L2696.94 218.127V239.727C2705.54 232.127 2713.94 226.327 2722.14 222.327C2730.54 218.127 2738.24 216.027 2745.24 216.027C2755.84 216.027 2764.44 219.927 2771.04 227.727C2777.84 235.327 2781.24 245.627 2781.24 258.627V385.227L2739.24 388.827V274.527C2739.24 259.527 2734.14 252.027 2723.94 252.027C2720.54 252.027 2716.74 253.027 2712.54 255.027C2708.54 257.027 2703.34 259.927 2696.94 263.727V385.227L2654.94 388.827V221.727Z" fill="white"/>
<path d="M605.664 721.027C603.664 721.027 602.664 720.027 602.664 718.027C602.664 717.227 602.764 716.127 602.964 714.727C603.164 713.127 603.664 711.727 604.464 710.527C611.064 709.727 615.864 707.927 618.864 705.127C622.064 702.127 623.664 696.927 623.664 689.527V541.627C623.664 536.427 623.264 532.627 622.464 530.227C621.864 527.827 620.164 526.327 617.364 525.727C614.764 524.927 610.364 524.527 604.164 524.527C604.164 523.527 604.264 522.227 604.464 520.627C604.664 519.027 604.864 517.727 605.064 516.727C605.664 514.527 606.364 513.327 607.164 513.127C608.164 512.727 608.764 512.527 608.964 512.527L731.664 512.227C734.864 512.227 736.564 513.427 736.764 515.827L739.164 548.827C738.364 549.627 736.964 550.227 734.964 550.627C733.164 551.027 731.664 551.227 730.464 551.227C728.664 551.227 727.564 550.327 727.164 548.527L725.364 539.227C724.564 534.627 723.164 531.227 721.164 529.027C719.164 526.627 715.964 525.427 711.564 525.427L652.164 525.127C648.164 525.127 645.364 525.927 643.764 527.527C642.364 528.927 641.664 531.727 641.664 535.927V602.827H688.464C695.264 602.827 699.764 602.027 701.964 600.427C704.364 598.827 705.864 594.627 706.464 587.827C707.664 587.027 708.864 586.527 710.064 586.327C711.264 586.127 712.264 586.027 713.064 586.027C715.064 586.027 716.064 587.027 716.064 589.027L715.464 635.827C715.464 637.227 714.764 638.027 713.364 638.227C712.364 638.427 711.064 638.627 709.464 638.827C708.064 639.027 706.864 639.127 705.864 639.127C705.264 632.127 704.064 626.527 702.264 622.327C700.664 617.927 696.064 615.727 688.464 615.727H641.664V689.527C641.664 696.927 642.664 701.827 644.664 704.227C646.864 706.627 649.864 708.027 653.664 708.427C655.064 708.627 657.664 708.827 661.464 709.027C665.464 709.027 668.464 709.027 670.464 709.027C670.464 710.027 670.364 711.327 670.164 712.927C670.164 714.527 669.964 715.827 669.564 716.827C668.964 718.827 668.264 720.027 667.464 720.427C666.664 720.827 666.064 721.027 665.664 721.027H605.664ZM815.099 725.527C802.299 725.527 791.199 722.627 781.799 716.827C772.599 710.827 765.499 702.527 760.499 691.927C755.499 681.327 752.899 669.227 752.699 655.627C752.699 640.427 755.599 627.127 761.399 615.727C767.399 604.127 775.599 595.027 785.999 588.427C796.599 581.827 808.599 578.527 821.999 578.527C834.799 578.527 845.799 581.427 854.999 587.227C864.399 593.027 871.699 601.127 876.899 611.527C882.099 621.927 884.699 634.027 884.699 647.827C884.899 663.027 881.999 676.527 875.999 688.327C869.999 699.927 861.699 709.027 851.099 715.627C840.699 722.227 828.699 725.527 815.099 725.527ZM821.099 710.827C835.699 710.827 846.899 705.827 854.699 695.827C862.499 685.827 866.399 672.127 866.399 654.727C866.399 635.927 861.799 621.027 852.599 610.027C843.599 598.827 831.499 593.227 816.299 593.227C801.899 593.227 790.699 598.327 782.699 608.527C774.899 618.527 770.999 632.127 770.999 649.327C770.999 668.127 775.499 683.127 784.499 694.327C793.499 705.327 805.699 710.827 821.099 710.827ZM964.659 725.527C952.059 725.527 941.959 721.727 934.359 714.127C926.959 706.527 923.259 694.627 923.259 678.427L923.559 608.527C923.559 604.527 923.159 601.627 922.359 599.827C921.759 597.827 919.759 596.727 916.359 596.527L904.659 595.327C903.259 595.327 902.559 594.527 902.559 592.927C902.559 589.927 903.559 587.227 905.559 584.827C908.759 583.827 912.959 583.027 918.159 582.427C923.559 581.827 928.059 581.527 931.659 581.527C936.059 581.527 938.859 582.627 940.059 584.827C941.459 586.827 941.959 590.227 941.559 595.027C941.159 600.427 940.759 608.127 940.359 618.127C939.959 627.927 939.759 638.127 939.759 648.727C939.759 653.327 939.759 658.027 939.759 662.827C939.959 667.427 940.159 672.027 940.359 676.627C941.159 687.627 944.259 695.927 949.659 701.527C955.059 706.927 962.059 709.727 970.659 709.927C978.059 710.127 985.659 708.127 993.459 703.927C1001.26 699.527 1007.56 693.827 1012.36 686.827C1013.16 674.227 1013.66 660.927 1013.86 646.927C1014.26 632.927 1014.46 620.427 1014.46 609.427C1014.46 605.427 1013.96 602.527 1012.96 600.727C1011.96 598.727 1009.76 597.627 1006.36 597.427L996.159 597.127C994.759 597.127 994.059 596.327 994.059 594.727C994.059 591.727 995.059 589.027 997.059 586.627C1000.46 585.627 1004.56 584.727 1009.36 583.927C1014.36 582.927 1018.76 582.427 1022.56 582.427C1029.56 582.427 1032.76 586.627 1032.16 595.027C1031.76 601.227 1031.36 608.927 1030.96 618.127C1030.56 627.127 1030.16 636.727 1029.76 646.927C1029.56 657.127 1029.36 666.927 1029.16 676.327C1028.96 685.527 1028.86 693.327 1028.86 699.727C1028.66 703.127 1029.26 705.427 1030.66 706.627C1032.06 707.827 1033.96 708.327 1036.36 708.127L1050.76 707.227C1051.96 707.227 1052.56 707.927 1052.56 709.327C1052.56 710.327 1052.26 711.827 1051.66 713.827C1051.26 715.827 1050.56 717.327 1049.56 718.327C1046.96 719.727 1042.96 721.127 1037.56 722.527C1032.16 723.727 1027.76 724.227 1024.36 724.027C1020.96 723.827 1018.16 721.727 1015.96 717.727C1013.76 713.527 1012.46 708.627 1012.06 703.027C1006.06 709.827 998.859 715.327 990.459 719.527C982.059 723.527 973.459 725.527 964.659 725.527ZM1074.17 721.027C1072.17 721.027 1071.17 720.027 1071.17 718.027C1071.17 717.227 1071.27 716.127 1071.47 714.727C1071.67 713.127 1072.17 711.727 1072.97 710.527C1079.97 709.727 1084.57 708.027 1086.77 705.427C1089.17 702.827 1090.57 699.027 1090.97 694.027C1091.17 691.427 1091.37 687.327 1091.57 681.727C1091.77 676.127 1091.87 669.727 1091.87 662.527C1092.07 655.127 1092.17 647.827 1092.17 640.627C1092.17 633.827 1092.07 627.727 1091.87 622.327C1091.87 616.727 1091.77 612.627 1091.57 610.027C1091.37 606.027 1090.57 603.127 1089.17 601.327C1087.97 599.527 1085.67 598.427 1082.27 598.027L1071.17 596.827C1069.77 596.827 1069.07 596.027 1069.07 594.427C1069.07 591.427 1070.07 588.727 1072.07 586.327C1075.27 585.327 1079.27 584.527 1084.07 583.927C1088.87 583.327 1093.07 583.027 1096.67 583.027C1101.07 583.027 1104.17 584.127 1105.97 586.327C1107.77 588.327 1108.67 591.727 1108.67 596.527C1108.67 598.527 1108.67 600.727 1108.67 603.127C1114.47 595.727 1121.67 589.827 1130.27 585.427C1138.87 580.827 1147.87 578.527 1157.27 578.527C1170.07 578.527 1180.27 582.327 1187.87 589.927C1195.67 597.527 1199.57 609.427 1199.57 625.627V661.927C1199.57 670.727 1199.57 678.227 1199.57 684.427C1199.77 690.427 1199.97 695.827 1200.17 700.627C1200.37 703.427 1200.97 705.327 1201.97 706.327C1202.97 707.127 1204.07 707.727 1205.27 708.127C1206.67 708.327 1208.87 708.527 1211.87 708.727C1215.07 708.927 1217.97 709.027 1220.57 709.027C1220.57 710.027 1220.47 711.527 1220.27 713.527C1220.07 715.527 1219.77 717.027 1219.37 718.027C1218.77 720.027 1217.67 721.027 1216.07 721.027H1164.77C1162.77 721.027 1161.77 720.027 1161.77 718.027C1161.77 717.227 1161.87 716.127 1162.07 714.727C1162.27 713.127 1162.77 711.727 1163.57 710.527C1170.37 709.727 1175.07 708.027 1177.67 705.427C1180.27 702.827 1181.87 699.027 1182.47 694.027C1182.87 691.627 1183.07 686.927 1183.07 679.927C1183.27 672.927 1183.37 665.327 1183.37 657.127C1183.37 650.927 1183.27 645.127 1183.07 639.727C1183.07 634.327 1182.97 630.227 1182.77 627.427C1182.17 616.227 1178.97 607.927 1173.17 602.527C1167.37 597.127 1160.07 594.327 1151.27 594.127C1141.67 593.927 1132.77 597.027 1124.57 603.427C1116.57 609.827 1111.17 617.927 1108.37 627.727C1108.17 632.927 1108.07 638.227 1108.07 643.627C1108.07 649.027 1108.07 654.227 1108.07 659.227C1108.07 668.227 1108.07 676.127 1108.07 682.927C1108.27 689.727 1108.47 695.727 1108.67 700.927C1108.87 705.127 1110.57 707.527 1113.77 708.127C1115.17 708.327 1117.67 708.527 1121.27 708.727C1124.87 708.927 1127.47 709.027 1129.07 709.027C1129.07 710.027 1128.97 711.327 1128.77 712.927C1128.77 714.527 1128.57 715.827 1128.17 716.827C1127.57 718.827 1126.87 720.027 1126.07 720.427C1125.27 720.827 1124.67 721.027 1124.27 721.027H1074.17ZM1319.96 517.027C1319.96 515.827 1320.26 514.427 1320.86 512.827C1321.46 511.227 1322.16 509.927 1322.96 508.927C1326.76 507.727 1331.06 506.827 1335.86 506.227C1340.86 505.427 1345.26 505.027 1349.06 505.027C1353.66 505.027 1357.16 505.727 1359.56 507.127C1362.16 508.327 1363.26 511.527 1362.86 516.727C1362.46 526.127 1362.06 538.527 1361.66 553.927C1361.26 569.127 1360.96 586.627 1360.76 606.427C1360.56 626.027 1360.46 647.127 1360.46 669.727V699.727C1360.46 703.127 1361.06 705.427 1362.26 706.627C1363.46 707.827 1365.26 708.327 1367.66 708.127L1382.36 707.227C1383.56 707.227 1384.16 707.927 1384.16 709.327C1384.16 710.327 1383.86 711.827 1383.26 713.827C1382.86 715.827 1382.16 717.327 1381.16 718.327C1379.56 719.327 1377.16 720.327 1373.96 721.327C1370.76 722.127 1367.46 722.827 1364.06 723.427C1360.66 723.827 1357.86 724.027 1355.66 724.027C1352.66 723.827 1349.96 721.927 1347.56 718.327C1345.36 714.727 1344.06 710.427 1343.66 705.427C1338.46 711.227 1331.86 716.027 1323.86 719.827C1315.86 723.627 1307.56 725.527 1298.96 725.527C1289.36 725.527 1280.16 723.027 1271.36 718.027C1262.76 713.027 1255.66 705.427 1250.06 695.227C1244.46 684.827 1241.66 671.727 1241.66 655.927C1241.66 640.927 1244.36 627.627 1249.76 616.027C1255.36 604.227 1263.16 595.027 1273.16 588.427C1283.16 581.827 1294.96 578.527 1308.56 578.527C1315.56 578.527 1322.06 579.527 1328.06 581.527C1334.26 583.527 1339.76 586.627 1344.56 590.827C1344.36 578.427 1344.06 566.927 1343.66 556.327C1343.46 545.727 1343.26 537.127 1343.06 530.527C1342.86 526.927 1342.06 524.427 1340.66 523.027C1339.46 521.627 1337.26 520.827 1334.06 520.627L1322.06 519.427C1320.66 519.227 1319.96 518.427 1319.96 517.027ZM1344.26 683.527C1344.46 677.127 1344.56 670.027 1344.56 662.227C1344.76 654.427 1344.86 646.327 1344.86 637.927C1344.86 633.527 1344.86 629.027 1344.86 624.427C1342.66 614.827 1337.66 607.227 1329.86 601.627C1322.06 595.827 1313.26 592.927 1303.46 592.927C1290.46 592.927 1279.96 597.927 1271.96 607.927C1264.16 617.727 1260.26 631.527 1260.26 649.327C1260.26 667.327 1264.26 681.827 1272.26 692.827C1280.26 703.627 1291.06 709.027 1304.66 709.027C1313.06 709.027 1320.96 706.827 1328.36 702.427C1335.76 697.827 1341.06 691.527 1344.26 683.527ZM1507.51 724.027C1503.51 724.027 1500.31 722.327 1497.91 718.927C1495.51 715.327 1494.11 710.827 1493.71 705.427C1486.51 712.227 1478.31 717.327 1469.11 720.727C1459.91 723.927 1451.11 725.527 1442.71 725.527C1431.71 725.527 1422.21 722.127 1414.21 715.327C1406.21 708.327 1402.21 698.527 1402.21 685.927C1402.21 674.927 1405.31 666.227 1411.51 659.827C1417.71 653.227 1427.51 648.327 1440.91 645.127C1454.51 641.727 1472.11 639.427 1493.71 638.227V631.627C1493.71 627.427 1493.51 622.927 1493.11 618.127C1492.71 613.327 1491.41 608.827 1489.21 604.627C1487.21 600.427 1483.81 597.027 1479.01 594.427C1474.21 591.627 1467.51 590.227 1458.91 590.227C1449.11 590.227 1441.81 592.427 1437.01 596.827C1432.21 601.027 1429.41 607.427 1428.61 616.027C1427.81 616.027 1426.91 616.127 1425.91 616.327C1424.91 616.327 1423.91 616.327 1422.91 616.327C1419.31 616.327 1415.91 615.827 1412.71 614.827C1409.51 613.827 1407.91 611.727 1407.91 608.527C1407.91 605.327 1409.71 602.027 1413.31 598.627C1416.91 595.027 1421.71 591.727 1427.71 588.727C1433.71 585.727 1440.31 583.327 1447.51 581.527C1454.71 579.527 1461.81 578.527 1468.81 578.527C1476.01 578.527 1482.81 579.827 1489.21 582.427C1495.81 584.827 1501.11 589.027 1505.11 595.027C1509.11 601.027 1510.91 609.327 1510.51 619.927C1510.31 625.527 1510.11 632.627 1509.91 641.227C1509.91 649.627 1509.91 658.027 1509.91 666.427C1509.91 672.627 1509.91 678.427 1509.91 683.827C1510.11 689.227 1510.21 693.827 1510.21 697.627C1510.41 703.027 1511.01 706.227 1512.01 707.227C1513.21 708.027 1514.91 708.327 1517.11 708.127C1517.31 708.127 1517.41 708.127 1517.41 708.127L1532.41 707.227C1533.61 707.227 1534.21 707.927 1534.21 709.327C1534.21 710.327 1533.91 711.827 1533.31 713.827C1532.91 715.827 1532.21 717.327 1531.21 718.327C1530.01 718.927 1527.81 719.727 1524.61 720.727C1521.61 721.527 1518.41 722.327 1515.01 723.127C1511.81 723.727 1509.31 724.027 1507.51 724.027ZM1493.41 694.027L1493.71 652.627C1485.31 651.827 1477.81 651.427 1471.21 651.427C1458.01 651.427 1447.81 652.727 1440.61 655.327C1433.41 657.927 1428.41 661.627 1425.61 666.427C1422.81 671.027 1421.41 676.527 1421.41 682.927C1421.41 692.327 1424.41 699.227 1430.41 703.627C1436.41 707.827 1443.51 709.927 1451.71 709.927C1458.91 709.927 1466.21 708.527 1473.61 705.727C1481.21 702.927 1487.81 699.027 1493.41 694.027ZM1603.85 725.527C1593.05 725.527 1584.35 722.027 1577.75 715.027C1571.15 707.827 1567.95 697.227 1568.15 683.227L1568.75 597.727H1546.25C1544.25 597.727 1543.25 596.727 1543.25 594.727C1543.25 593.927 1543.65 592.127 1544.45 589.327C1545.45 586.327 1546.35 584.227 1547.15 583.027H1568.75V557.827C1568.75 555.027 1569.95 553.227 1572.35 552.427C1574.35 551.627 1577.05 550.827 1580.45 550.027C1584.05 549.227 1587.15 548.727 1589.75 548.527C1589.35 550.927 1588.85 555.227 1588.25 561.427C1587.85 567.427 1587.45 574.627 1587.05 583.027H1611.65C1621.25 583.027 1629.25 582.527 1635.65 581.527C1635.25 584.327 1634.75 587.027 1634.15 589.627C1633.75 592.227 1633.35 593.827 1632.95 594.427C1631.95 596.627 1629.65 597.727 1626.05 597.727H1586.45C1586.25 606.327 1586.05 615.427 1585.85 625.027C1585.65 634.427 1585.55 643.827 1585.55 653.227C1585.55 658.027 1585.55 662.727 1585.55 667.327C1585.55 671.927 1585.65 676.427 1585.85 680.827C1586.25 690.627 1588.75 697.727 1593.35 702.127C1597.95 706.527 1604.15 708.727 1611.95 708.727C1620.95 708.727 1630.55 705.627 1640.75 699.427C1641.35 700.027 1641.95 701.527 1642.55 703.927C1643.35 706.127 1643.75 707.927 1643.75 709.327C1643.75 711.327 1642.55 713.027 1640.15 714.427C1635.15 717.627 1629.45 720.327 1623.05 722.527C1616.65 724.527 1610.25 725.527 1603.85 725.527ZM1660.35 721.027C1658.35 721.027 1657.35 720.027 1657.35 718.027C1657.35 717.227 1657.45 716.127 1657.65 714.727C1657.85 713.127 1658.35 711.727 1659.15 710.527C1666.35 709.727 1671.65 708.027 1675.05 705.427C1678.45 702.827 1680.35 699.027 1680.75 694.027C1680.95 691.427 1681.15 687.327 1681.35 681.727C1681.55 675.927 1681.65 669.427 1681.65 662.227C1681.85 654.827 1681.95 647.527 1681.95 640.327C1681.95 633.727 1681.85 627.727 1681.65 622.327C1681.65 616.727 1681.55 612.627 1681.35 610.027C1681.15 606.027 1680.35 603.127 1678.95 601.327C1677.75 599.527 1675.45 598.427 1672.05 598.027L1660.95 596.827C1659.55 596.827 1658.85 596.027 1658.85 594.427C1658.85 591.427 1659.85 588.727 1661.85 586.327C1665.05 585.327 1669.05 584.527 1673.85 583.927C1678.65 583.327 1682.85 583.027 1686.45 583.027C1690.85 583.027 1693.95 584.127 1695.75 586.327C1697.55 588.327 1698.45 591.727 1698.45 596.527C1698.25 604.527 1698.05 614.327 1697.85 625.927C1697.85 637.327 1697.85 648.327 1697.85 658.927C1697.85 667.927 1697.85 675.727 1697.85 682.327C1698.05 688.927 1698.25 694.827 1698.45 700.027C1698.85 704.827 1700.85 707.527 1704.45 708.127C1705.45 708.327 1707.05 708.527 1709.25 708.727C1711.65 708.727 1714.05 708.827 1716.45 709.027C1719.05 709.027 1720.85 709.027 1721.85 709.027C1721.85 710.027 1721.75 711.327 1721.55 712.927C1721.55 714.527 1721.35 715.827 1720.95 716.827C1720.35 718.827 1719.65 720.027 1718.85 720.427C1718.05 720.827 1717.45 721.027 1717.05 721.027H1660.35ZM1684.65 548.527C1679.85 548.527 1675.85 547.027 1672.65 544.027C1669.45 541.027 1667.85 537.427 1667.85 533.227C1667.85 528.627 1669.45 524.827 1672.65 521.827C1675.85 518.627 1679.85 517.027 1684.65 517.027C1689.25 517.027 1693.05 518.627 1696.05 521.827C1699.25 524.827 1700.85 528.627 1700.85 533.227C1700.85 537.427 1699.25 541.027 1696.05 544.027C1693.05 547.027 1689.25 548.527 1684.65 548.527ZM1802.11 725.527C1789.31 725.527 1778.21 722.627 1768.81 716.827C1759.61 710.827 1752.51 702.527 1747.51 691.927C1742.51 681.327 1739.91 669.227 1739.71 655.627C1739.71 640.427 1742.61 627.127 1748.41 615.727C1754.41 604.127 1762.61 595.027 1773.01 588.427C1783.61 581.827 1795.61 578.527 1809.01 578.527C1821.81 578.527 1832.81 581.427 1842.01 587.227C1851.41 593.027 1858.71 601.127 1863.91 611.527C1869.11 621.927 1871.71 634.027 1871.71 647.827C1871.91 663.027 1869.01 676.527 1863.01 688.327C1857.01 699.927 1848.71 709.027 1838.11 715.627C1827.71 722.227 1815.71 725.527 1802.11 725.527ZM1808.11 710.827C1822.71 710.827 1833.91 705.827 1841.71 695.827C1849.51 685.827 1853.41 672.127 1853.41 654.727C1853.41 635.927 1848.81 621.027 1839.61 610.027C1830.61 598.827 1818.51 593.227 1803.31 593.227C1788.91 593.227 1777.71 598.327 1769.71 608.527C1761.91 618.527 1758.01 632.127 1758.01 649.327C1758.01 668.127 1762.51 683.127 1771.51 694.327C1780.51 705.327 1792.71 710.827 1808.11 710.827ZM1899.17 721.027C1897.17 721.027 1896.17 720.027 1896.17 718.027C1896.17 717.227 1896.27 716.127 1896.47 714.727C1896.67 713.127 1897.17 711.727 1897.97 710.527C1904.97 709.727 1909.57 708.027 1911.77 705.427C1914.17 702.827 1915.57 699.027 1915.97 694.027C1916.17 691.427 1916.37 687.327 1916.57 681.727C1916.77 676.127 1916.87 669.727 1916.87 662.527C1917.07 655.127 1917.17 647.827 1917.17 640.627C1917.17 633.827 1917.07 627.727 1916.87 622.327C1916.87 616.727 1916.77 612.627 1916.57 610.027C1916.37 606.027 1915.57 603.127 1914.17 601.327C1912.97 599.527 1910.67 598.427 1907.27 598.027L1896.17 596.827C1894.77 596.827 1894.07 596.027 1894.07 594.427C1894.07 591.427 1895.07 588.727 1897.07 586.327C1900.27 585.327 1904.27 584.527 1909.07 583.927C1913.87 583.327 1918.07 583.027 1921.67 583.027C1926.07 583.027 1929.17 584.127 1930.97 586.327C1932.77 588.327 1933.67 591.727 1933.67 596.527C1933.67 598.527 1933.67 600.727 1933.67 603.127C1939.47 595.727 1946.67 589.827 1955.27 585.427C1963.87 580.827 1972.87 578.527 1982.27 578.527C1995.07 578.527 2005.27 582.327 2012.87 589.927C2020.67 597.527 2024.57 609.427 2024.57 625.627V661.927C2024.57 670.727 2024.57 678.227 2024.57 684.427C2024.77 690.427 2024.97 695.827 2025.17 700.627C2025.37 703.427 2025.97 705.327 2026.97 706.327C2027.97 707.127 2029.07 707.727 2030.27 708.127C2031.67 708.327 2033.87 708.527 2036.87 708.727C2040.07 708.927 2042.97 709.027 2045.57 709.027C2045.57 710.027 2045.47 711.527 2045.27 713.527C2045.07 715.527 2044.77 717.027 2044.37 718.027C2043.77 720.027 2042.67 721.027 2041.07 721.027H1989.77C1987.77 721.027 1986.77 720.027 1986.77 718.027C1986.77 717.227 1986.87 716.127 1987.07 714.727C1987.27 713.127 1987.77 711.727 1988.57 710.527C1995.37 709.727 2000.07 708.027 2002.67 705.427C2005.27 702.827 2006.87 699.027 2007.47 694.027C2007.87 691.627 2008.07 686.927 2008.07 679.927C2008.27 672.927 2008.37 665.327 2008.37 657.127C2008.37 650.927 2008.27 645.127 2008.07 639.727C2008.07 634.327 2007.97 630.227 2007.77 627.427C2007.17 616.227 2003.97 607.927 1998.17 602.527C1992.37 597.127 1985.07 594.327 1976.27 594.127C1966.67 593.927 1957.77 597.027 1949.57 603.427C1941.57 609.827 1936.17 617.927 1933.37 627.727C1933.17 632.927 1933.07 638.227 1933.07 643.627C1933.07 649.027 1933.07 654.227 1933.07 659.227C1933.07 668.227 1933.07 676.127 1933.07 682.927C1933.27 689.727 1933.47 695.727 1933.67 700.927C1933.87 705.127 1935.57 707.527 1938.77 708.127C1940.17 708.327 1942.67 708.527 1946.27 708.727C1949.87 708.927 1952.47 709.027 1954.07 709.027C1954.07 710.027 1953.97 711.327 1953.77 712.927C1953.77 714.527 1953.57 715.827 1953.17 716.827C1952.57 718.827 1951.87 720.027 1951.07 720.427C1950.27 720.827 1949.67 721.027 1949.27 721.027H1899.17Z" fill="white"/>
<ellipse cx="123.491" cy="652.875" rx="70.0783" ry="132.152" fill="#8FFE09"/>
<ellipse cx="364.083" cy="230.179" rx="70.0783" ry="132.152" fill="#8FFE09"/>
<path d="M89.8915 -0.00111135C59.9276 96.3889 29.9636 192.779 -0.000335682 289.169C7.79225 293.069 15.5094 297.211 23.1511 301.595C93.4221 341.917 157.315 402.755 214.83 484.11C216.089 485.891 217.345 487.683 218.598 489.486L216.146 485.833C267.822 568.189 312.77 668.937 350.99 788.075C355.433 801.924 359.785 816.021 364.046 830.366C397.437 739.082 430.829 647.798 464.22 556.513C456.394 551.913 448.66 547.064 441.016 541.967C375.256 498.114 316.223 435.871 263.918 355.236L261.466 351.584C260.2 349.824 258.938 348.053 257.679 346.272C200.164 264.917 149.027 163.045 104.267 40.6551C99.4001 27.3457 94.6081 13.7936 89.8915 -0.00111135Z" fill="#02BD08"/>
</svg>
